<svg width="382" height="235" viewBox="0 0 382 248" fill="none" xmlns="http://www.w3.org/2000/svg">
<g clip-path="url(#clip0)">
<g clip-path="url(#clip1)">
<ellipse cx="70.0194" cy="115.516" rx="65.6532" ry="58.4227" transform="rotate(-2.63079 70.0194 115.516)" fill="#DDB586"/>
<ellipse cx="145.642" cy="66.9116" rx="65.6533" ry="58.4227" transform="rotate(-2.63079 145.642 66.9116)" fill="#DDB586"/>
<ellipse cx="222.705" cy="71.6597" rx="65.6532" ry="58.4227" transform="rotate(-2.63079 222.705 71.6597)" fill="#DDB586"/>
<ellipse cx="294.559" cy="95.0679" rx="65.6532" ry="58.4227" transform="rotate(-2.63079 294.559 95.0679)" fill="#DDB586"/>
<ellipse cx="292.807" cy="163.751" rx="65.6532" ry="58.4227" transform="rotate(-2.63079 292.807 163.751)" fill="#DDB586"/>
<ellipse cx="109.046" cy="172.667" rx="65.6532" ry="58.4227" transform="rotate(-2.63079 109.046 172.667)" fill="#DDB586"/>
<ellipse cx="186.057" cy="132.289" rx="65.6532" ry="58.4227" transform="rotate(-2.63079 186.057 132.289)" fill="#DDB586"/>
<ellipse cx="214.759" cy="185.493" rx="68.4195" ry="53.6393" transform="rotate(-2.63079 214.759 185.493)" fill="#DDB586"/>
<ellipse cx="123.831" cy="171.261" rx="68.4195" ry="53.6393" transform="rotate(-2.63079 123.831 171.261)" fill="#DDB586"/>
</g>
</g>
<defs>
<clipPath id="clip0">
<rect width="371.078" height="230.975" fill="white" transform="translate(0 17.0322) rotate(-2.63079)"/>
</clipPath>
<clipPath id="clip1">
<rect width="371.571" height="226.818" fill="white" transform="translate(0 22) rotate(-2.63079)"/>
</clipPath>
</defs>
</svg>
