<svg width="357" height="208" viewBox="0 0 357 208" fill="none" xmlns="http://www.w3.org/2000/svg">
<g clip-path="url(#clip0)">
<g clip-path="url(#clip1)">
<path fill-rule="evenodd" clip-rule="evenodd" d="M265.353 195.643C255.277 195.79 245.715 194.114 237.176 191.004C224.578 199.159 208.545 204.156 191.03 204.41C172.685 204.677 155.814 199.696 142.714 191.221C132.736 195.335 121.437 197.733 109.442 197.908C72.431 198.445 41.4202 177.623 35.2616 149.846C15.3615 140.659 1.70121 122.521 1.39532 101.458C1.15285 84.7627 9.35153 69.6597 22.5363 59.2532C26.4212 32.8984 51.6933 12.3193 82.5938 11.8705C90.2257 11.7597 97.5501 12.8863 104.323 15.041C116.996 7.86795 133.187 3.44803 150.882 3.19105C166.967 2.95744 181.911 6.19857 194.168 11.8998C204.61 5.86892 217.441 2.22442 231.352 2.02238C252.479 1.71557 271.344 9.41652 283.261 21.5614C316.818 22.8221 343.643 44.3015 344.031 71.0168C344.042 71.8147 344.03 72.6087 343.995 73.3983C351.139 81.3782 355.389 91.0836 355.542 101.6C355.789 118.598 345.276 133.788 328.966 143.165C328.981 143.532 328.992 143.9 328.997 144.268C329.402 172.126 300.907 195.127 265.353 195.643Z" fill="#6FC177"/>
</g>
</g>
<defs>
<clipPath id="clip0">
<rect width="354.107" height="201.781" fill="white" transform="translate(0 5.38232) rotate(-0.832055)"/>
</clipPath>
<clipPath id="clip1">
<rect width="354.107" height="201.781" fill="white" transform="translate(0 5.38232) rotate(-0.832055)"/>
</clipPath>
</defs>
</svg>
