<svg width="340" height="220" viewBox="0 0 326 202" fill="none" xmlns="http://www.w3.org/2000/svg">
<g clip-path="url(#clip0)">
<ellipse cx="57.6748" cy="86.8379" rx="55" ry="54.5" transform="rotate(1.42159 57.6748 86.8379)" fill="#AC5ED1"/>
<ellipse cx="113.427" cy="57.212" rx="55" ry="54.5" transform="rotate(1.42159 113.427 57.212)" fill="#AC5ED1"/>
<ellipse cx="177.258" cy="64.7979" rx="55" ry="54.5" transform="rotate(1.42159 177.258 64.7979)" fill="#AC5ED1"/>
<ellipse cx="239.239" cy="66.3365" rx="55" ry="54.5" transform="rotate(1.42159 239.239 66.3365)" fill="#AC5ED1"/>
<ellipse cx="268.635" cy="91.0733" rx="55" ry="54.5" transform="rotate(1.42159 268.635 91.0733)" fill="#AC5ED1"/>
<ellipse cx="252.895" cy="120.692" rx="55" ry="54.5" transform="rotate(1.42159 252.895 120.692)" fill="#AC5ED1"/>
<ellipse cx="202.315" cy="143.444" rx="55" ry="54.5" transform="rotate(1.42159 202.315 143.444)" fill="#AC5ED1"/>
<ellipse cx="142.309" cy="142.955" rx="55" ry="54.5" transform="rotate(1.42159 142.309 142.955)" fill="#AC5ED1"/>
<ellipse cx="78.7005" cy="126.372" rx="55" ry="54.5" transform="rotate(1.42159 78.7005 126.372)" fill="#AC5ED1"/>
</g>
<defs>
<clipPath id="clip0">
<rect width="321" height="194" fill="white" transform="translate(4.81292) rotate(1.42159)"/>
</clipPath>
</defs>
</svg>
