<svg width="360" height="245" viewBox="0 0 473 252" fill="none" xmlns="http://www.w3.org/2000/svg">
<g clip-path="url(#clip0)">
<g clip-path="url(#clip1)">
<ellipse rx="70.0901" ry="70.5065" transform="matrix(0.999743 -0.0226605 0.0257789 0.999668 72.7149 110.381)" fill="#D8D47B"/>
<ellipse rx="81.4178" ry="70.5065" transform="matrix(0.999743 -0.0226605 0.0257789 0.999668 142.698 77.8632)" fill="#D8D47B"/>
<ellipse rx="81.4178" ry="70.5065" transform="matrix(0.999743 -0.0226605 0.0257789 0.999668 224.802 76.0023)" fill="#D8D47B"/>
<ellipse rx="81.4178" ry="70.5065" transform="matrix(0.999743 -0.0226605 0.0257789 0.999668 332.388 73.5639)" fill="#D8D47B"/>
<ellipse rx="81.4178" ry="70.5065" transform="matrix(0.999743 -0.0226605 0.0257789 0.999668 373.013 110.998)" fill="#D8D47B"/>
<ellipse rx="94.8694" ry="70.5065" transform="matrix(0.999743 -0.0226605 0.0257789 0.999668 335.71 174.944)" fill="#D8D47B"/>
<ellipse rx="113.277" ry="70.5065" transform="matrix(0.999743 -0.0226605 0.0257789 0.999668 211.138 177.768)" fill="#D8D47B"/>
<ellipse rx="96.2854" ry="70.5065" transform="matrix(0.999743 -0.0226605 0.0257789 0.999668 113.461 179.982)" fill="#D8D47B"/>
</g>
</g>
<defs>
<clipPath id="clip0">
<rect width="468.363" height="242.451" fill="white" transform="translate(0 9.13037) rotate(-1.11699)"/>
</clipPath>
<clipPath id="clip1">
<rect width="451.692" height="242.443" fill="white" transform="matrix(0.999743 -0.0226605 0.0257789 0.999668 0.0281067 10.5728)"/>
</clipPath>
</defs>
</svg>
