<svg width="340" height="198" viewBox="0 0 355 198" fill="none" xmlns="http://www.w3.org/2000/svg">
<g clip-path="url(#clip0)">
<ellipse rx="58.7684" ry="48.8523" transform="matrix(0.999974 0.00715815 -0.0101641 0.999948 59.9484 79.5913)" fill="#C493DB"/>
<ellipse rx="58.7684" ry="48.8523" transform="matrix(0.999974 0.00715815 -0.0101641 0.999948 109.571 49.6235)" fill="#C493DB"/>
<ellipse rx="58.7684" ry="48.8523" transform="matrix(0.999974 0.00715815 -0.0101641 0.999948 177.79 50.1118)" fill="#C493DB"/>
<ellipse rx="58.7684" ry="48.8523" transform="matrix(0.999974 0.00715815 -0.0101641 0.999948 248.398 58.1982)" fill="#C493DB"/>
<ellipse rx="58.7684" ry="48.8523" transform="matrix(0.999974 0.00715815 -0.0101641 0.999948 295.016 81.2739)" fill="#C493DB"/>
<ellipse rx="58.7684" ry="48.8523" transform="matrix(0.999974 0.00715815 -0.0101641 0.999948 277.413 114.84)" fill="#C493DB"/>
<ellipse rx="58.7684" ry="48.8523" transform="matrix(0.999974 0.00715815 -0.0101641 0.999948 218.792 140.531)" fill="#C493DB"/>
<ellipse rx="58.7684" ry="48.8523" transform="matrix(0.999974 0.00715815 -0.0101641 0.999948 145.565 147.588)" fill="#C493DB"/>
<ellipse rx="58.7684" ry="48.8523" transform="matrix(0.999974 0.00715815 -0.0101641 0.999948 84.0664 132.829)" fill="#C493DB"/>
<ellipse rx="58.7684" ry="48.8523" transform="matrix(0.999974 0.00715815 -0.0101641 0.999948 160.779 106.424)" fill="#C493DB"/>
</g>
<defs>
<clipPath id="clip0">
<rect width="352.611" height="195.409" fill="white" transform="matrix(0.999974 0.00715815 -0.0101641 0.999948 1.98615 0)"/>
</clipPath>
</defs>
</svg>
