<svg width="340" height="200" viewBox="0 0 415 261" fill="none" xmlns="http://www.w3.org/2000/svg">
<g clip-path="url(#clip0)">
<ellipse rx="71.2696" ry="73.6814" transform="matrix(0.999996 -0.00266975 0.0146464 0.999893 72.8829 111.859)" fill="#D37171"/>
<ellipse rx="71.2696" ry="73.6814" transform="matrix(0.999996 -0.00266975 0.0146464 0.999893 135.419 75.2045)" fill="#D37171"/>
<ellipse rx="71.2696" ry="73.6814" transform="matrix(0.999996 -0.00266975 0.0146464 0.999893 214.887 74.9925)" fill="#D37171"/>
<ellipse rx="71.2696" ry="73.6814" transform="matrix(0.999996 -0.00266975 0.0146464 0.999893 293.218 83.2035)" fill="#D37171"/>
<ellipse rx="71.2696" ry="73.6814" transform="matrix(0.999996 -0.00266975 0.0146464 0.999893 341.583 112.545)" fill="#D37171"/>
<ellipse rx="71.2696" ry="73.6814" transform="matrix(0.999996 -0.00266975 0.0146464 0.999893 95.1696 169.337)" fill="#D37171"/>
<ellipse rx="91.4521" ry="73.6814" transform="matrix(0.999996 -0.00266975 0.0146464 0.999893 196.329 185.907)" fill="#D37171"/>
<ellipse rx="96.4978" ry="73.6814" transform="matrix(0.999996 -0.00266975 0.0146464 0.999893 288.164 168.822)" fill="#D37171"/>
</g>
<defs>
<clipPath id="clip0">
<rect width="411.219" height="258.236" fill="white" transform="matrix(0.999996 -0.00266975 0.0146464 0.999893 0 1.88965)"/>
</clipPath>
</defs>
</svg>
