<svg width="340" height="230" viewBox="0 0 334 192" fill="none" xmlns="http://www.w3.org/2000/svg">
<g clip-path="url(#clip0)">
<ellipse rx="63.1007" ry="60.7527" transform="matrix(0.999986 0.00531588 -0.00110958 0.999999 65.8828 106.142)" fill="#708FDE"/>
<ellipse rx="49.8404" ry="46.8095" transform="matrix(0.999986 0.00531588 -0.00110958 0.999999 76.5069 58.1706)" fill="#708FDE"/>
<ellipse rx="49.8404" ry="46.8095" transform="matrix(0.999986 0.00531588 -0.00110958 0.999999 133.217 47.5168)" fill="#708FDE"/>
<ellipse rx="59.9" ry="46.8095" transform="matrix(0.999986 0.00531588 -0.00110958 0.999999 211.864 47.935)" fill="#708FDE"/>
<ellipse rx="49.8404" ry="46.8095" transform="matrix(0.999986 0.00531588 -0.00110958 0.999999 278.599 68.2087)" fill="#708FDE"/>
<ellipse rx="49.8404" ry="46.8095" transform="matrix(0.999986 0.00531588 -0.00110958 0.999999 284.056 95.1286)" fill="#708FDE"/>
<ellipse rx="49.8404" ry="46.8095" transform="matrix(0.999986 0.00531588 -0.00110958 0.999999 261.155 129.865)" fill="#708FDE"/>
<ellipse rx="49.8404" ry="62.7446" transform="matrix(0.999986 0.00531588 -0.00110958 0.999999 201.718 125.565)" fill="#708FDE"/>
<ellipse rx="75.9038" ry="54.2791" transform="matrix(0.999986 0.00531588 -0.00110958 0.999999 132.661 136.651)" fill="#708FDE"/>
</g>
<defs>
<clipPath id="clip0">
<rect width="333.794" height="190.226" fill="white" transform="matrix(0.999986 0.00531588 -0.00110958 0.999999 0.211075 0)"/>
</clipPath>
</defs>
</svg>
